<svg width="566" height="249" viewBox="0 0 566 249" fill="none" xmlns="http://www.w3.org/2000/svg">
<path d="M565.227 156.885V191.416H391.076L389.25 164.854L491.682 3.32031H526.711L488.859 67.5684L433.908 156.885H565.227ZM536.506 3.32031V245.039H492.512V3.32031H536.506Z" fill="url(#paint0_linear_9960_61200)" fill-opacity="0.2"/>
<path d="M363.186 103.428V144.102C363.186 162.695 361.304 178.577 357.541 191.748C353.778 204.919 348.355 215.71 341.271 224.121C334.188 232.422 325.721 238.564 315.871 242.549C306.021 246.423 295.064 248.359 283 248.359C273.371 248.359 264.406 247.142 256.105 244.707C247.805 242.161 240.334 238.288 233.693 233.086C227.163 227.773 221.519 221.022 216.76 212.832C212.111 204.642 208.514 194.847 205.969 183.447C203.534 172.048 202.316 158.932 202.316 144.102V103.428C202.316 84.834 204.198 69.0072 207.961 55.9473C211.835 42.8874 217.313 32.207 224.396 23.9062C231.48 15.6055 239.947 9.57357 249.797 5.81055C259.647 1.93685 270.604 0 282.668 0C292.408 0 301.372 1.21745 309.562 3.65234C317.863 6.08724 325.279 9.9056 331.809 15.1074C338.449 20.1986 344.094 26.8392 348.742 35.0293C353.391 43.1087 356.932 52.8483 359.367 64.248C361.913 75.5371 363.186 88.597 363.186 103.428ZM319.357 150.078V97.2852C319.357 87.9883 318.804 79.9089 317.697 73.0469C316.701 66.0742 315.207 60.153 313.215 55.2832C311.223 50.4134 308.732 46.4844 305.744 43.4961C302.756 40.3971 299.325 38.1283 295.451 36.6895C291.577 35.2507 287.316 34.5312 282.668 34.5312C276.913 34.5312 271.766 35.6934 267.229 38.0176C262.691 40.2311 258.872 43.7728 255.773 48.6426C252.674 53.5124 250.295 59.987 248.635 68.0664C247.085 76.0352 246.311 85.7747 246.311 97.2852V150.078C246.311 159.375 246.809 167.51 247.805 174.482C248.911 181.455 250.461 187.432 252.453 192.412C254.556 197.393 257.046 201.488 259.924 204.697C262.912 207.796 266.343 210.12 270.217 211.67C274.09 213.109 278.352 213.828 283 213.828C288.866 213.828 294.012 212.666 298.439 210.342C302.977 208.018 306.796 204.365 309.895 199.385C312.993 194.294 315.318 187.708 316.867 179.629C318.527 171.439 319.357 161.589 319.357 150.078Z" fill="url(#paint1_linear_9960_61200)" fill-opacity="0.2"/>
<path d="M176.75 156.885V191.416H2.59961L0.773438 164.854L103.205 3.32031H138.234L100.383 67.5684L45.4316 156.885H176.75ZM148.029 3.32031V245.039H104.035V3.32031H148.029Z" fill="url(#paint2_linear_9960_61200)" fill-opacity="0.2"/>
<defs>
<linearGradient id="paint0_linear_9960_61200" x1="425.575" y1="32.4707" x2="566.857" y2="177.323" gradientUnits="userSpaceOnUse">
<stop stop-color="#0D0D0D"/>
<stop offset="1" stop-color="#AAAAAA"/>
</linearGradient>
<linearGradient id="paint1_linear_9960_61200" x1="235.523" y1="29.9512" x2="380.12" y2="161.852" gradientUnits="userSpaceOnUse">
<stop stop-color="#AAAAAA"/>
<stop offset="1" stop-color="#0D0D0D"/>
</linearGradient>
<linearGradient id="paint2_linear_9960_61200" x1="37.0987" y1="32.4707" x2="178.38" y2="177.323" gradientUnits="userSpaceOnUse">
<stop stop-color="#0D0D0D"/>
<stop offset="1" stop-color="#AAAAAA"/>
</linearGradient>
</defs>
</svg>
